<svg width="128" height="128" viewBox="0 0 128 128" fill="none" xmlns="http://www.w3.org/2000/svg">
<circle cx="64" cy="64" r="64" fill="url(#paint0_linear_201_17)"/>
<path d="M27.7979 35.6865H20.4727V32.1572H39.1475V35.6865H31.8223V52H27.7979V35.6865ZM46.0715 53.8789C46.4608 54.1328 46.884 54.3571 47.341 54.5518C47.798 54.7464 48.272 54.9072 48.7629 55.0342C49.2622 55.1611 49.7701 55.2542 50.2863 55.3135C50.8026 55.3812 51.3146 55.415 51.8225 55.415C53.549 55.415 54.8778 55.0426 55.8088 54.2979C56.7482 53.5615 57.218 52.4528 57.218 50.9717V50.4639C56.8879 50.6924 56.5155 50.904 56.1008 51.0986C55.6945 51.2848 55.2544 51.4456 54.7805 51.5811C54.315 51.7165 53.8199 51.8223 53.2951 51.8984C52.7788 51.9661 52.2541 52 51.7209 52C50.5783 52 49.5542 51.835 48.6486 51.5049C47.7515 51.1663 46.9898 50.6755 46.3635 50.0322C45.7456 49.3805 45.2717 48.5807 44.9416 47.6328C44.6115 46.6849 44.4465 45.6016 44.4465 44.3828V37.0195H48.1916V43.3418C48.1916 45.153 48.5344 46.4902 49.2199 47.3535C49.9139 48.2083 51.0057 48.6357 52.4953 48.6357C53.5448 48.6357 54.4715 48.4538 55.2756 48.0898C56.0881 47.7174 56.7355 47.2435 57.218 46.668V37.0195H60.9758V50.2861C60.9758 51.7165 60.7727 52.9564 60.3664 54.0059C59.9602 55.0638 59.3677 55.9398 58.5891 56.6338C57.8189 57.3278 56.871 57.8441 55.7453 58.1826C54.6197 58.5296 53.3417 58.7031 51.9113 58.7031C50.5148 58.7031 49.2115 58.555 48.0012 58.2588C46.7909 57.9626 45.6822 57.5605 44.675 57.0527L46.0715 53.8789ZM70.7943 58.1191H67.0365V37.0195H70.7943V38.4287C71.1244 38.2002 71.5137 37.9844 71.9623 37.7812C72.4109 37.5781 72.8933 37.4004 73.4096 37.248C73.9258 37.0957 74.459 36.9772 75.0092 36.8926C75.5593 36.7995 76.1094 36.7529 76.6596 36.7529C77.9291 36.7529 79.0928 36.9391 80.1508 37.3115C81.2172 37.6839 82.1312 38.2087 82.893 38.8857C83.6547 39.5628 84.2471 40.3753 84.6703 41.3232C85.102 42.2627 85.3178 43.3037 85.3178 44.4463C85.3178 45.6396 85.0935 46.7188 84.6449 47.6836C84.1964 48.64 83.5743 49.4609 82.7787 50.1465C81.9916 50.8236 81.0521 51.3483 79.9604 51.7207C78.877 52.0846 77.7006 52.2666 76.4311 52.2666C75.8894 52.2666 75.352 52.2327 74.8187 52.165C74.294 52.0973 73.7862 52.0042 73.2953 51.8857C72.8129 51.7673 72.3559 51.6276 71.9242 51.4668C71.501 51.2975 71.1244 51.1156 70.7943 50.9209V58.1191ZM70.7943 47.29C71.1752 47.5947 71.5772 47.8529 72.0004 48.0645C72.4236 48.276 72.8552 48.4495 73.2953 48.585C73.7354 48.7204 74.1798 48.8219 74.6283 48.8896C75.0769 48.9489 75.5128 48.9785 75.9359 48.9785C76.7992 48.9785 77.5652 48.8643 78.2338 48.6357C78.9109 48.3988 79.4779 48.0771 79.935 47.6709C80.4005 47.2646 80.7559 46.7865 81.0014 46.2363C81.2468 45.6862 81.3695 45.0895 81.3695 44.4463C81.3695 43.8454 81.2468 43.2783 81.0014 42.7451C80.7644 42.2119 80.4174 41.7464 79.9604 41.3486C79.5118 40.9424 78.9659 40.625 78.3227 40.3965C77.6879 40.1595 76.9727 40.041 76.1771 40.041C75.6693 40.041 75.1615 40.0918 74.6537 40.1934C74.1459 40.2865 73.655 40.4219 73.1811 40.5996C72.7156 40.7773 72.2755 40.9932 71.8607 41.2471C71.4545 41.501 71.099 41.7845 70.7943 42.0977V47.29ZM89.4615 44.459C89.4615 43.4434 89.6689 42.4743 90.0836 41.5518C90.4983 40.6208 91.095 39.7998 91.8736 39.0889C92.6523 38.3779 93.6044 37.8109 94.7301 37.3877C95.8642 36.9645 97.1507 36.7529 98.5895 36.7529C100.02 36.7529 101.306 36.9688 102.449 37.4004C103.6 37.8236 104.573 38.4076 105.369 39.1523C106.173 39.8971 106.786 40.7731 107.21 41.7803C107.641 42.7874 107.857 43.8665 107.857 45.0176C107.857 45.1615 107.853 45.318 107.844 45.4873C107.844 45.6481 107.836 45.7962 107.819 45.9316H93.651C93.8118 46.3802 94.0699 46.7907 94.4254 47.1631C94.7893 47.5355 95.2421 47.8571 95.7838 48.1279C96.3255 48.3988 96.9518 48.6104 97.6627 48.7627C98.3736 48.9066 99.1607 48.9785 100.024 48.9785C100.887 48.9785 101.746 48.8896 102.601 48.7119C103.456 48.5257 104.273 48.293 105.051 48.0137L106.321 50.8828C105.83 51.1113 105.331 51.3145 104.823 51.4922C104.324 51.6615 103.799 51.8053 103.249 51.9238C102.707 52.0339 102.136 52.1185 101.535 52.1777C100.942 52.237 100.316 52.2666 99.6559 52.2666C97.9716 52.2666 96.4947 52.0635 95.2252 51.6572C93.9557 51.251 92.8935 50.6966 92.0387 49.9941C91.1839 49.2917 90.5406 48.4665 90.109 47.5186C89.6773 46.5706 89.4615 45.5508 89.4615 44.459ZM103.871 42.999C103.735 42.5843 103.524 42.1992 103.236 41.8438C102.957 41.4798 102.605 41.1667 102.182 40.9043C101.759 40.6335 101.268 40.4219 100.71 40.2695C100.151 40.1172 99.5374 40.041 98.8688 40.041C98.1578 40.041 97.5104 40.1214 96.9264 40.2822C96.3424 40.443 95.8303 40.6589 95.3902 40.9297C94.9501 41.2005 94.582 41.5137 94.2857 41.8691C93.998 42.2246 93.7864 42.6012 93.651 42.999H103.871ZM19.2539 75.1572H23.6465L29.0293 87.9668L30.2734 91.0645L31.251 87.9668L33.2314 83.2949L29.6641 75.1572H33.8027L35.2627 79.0293L36.6211 75.1572H40.7598L37.1924 83.2949L39.2109 88.0684L40.4297 91.0645L41.3691 88.0176L46.7773 75.1572H51.1699L42.4102 95H38.4238L36.6592 91.0645L35.2246 87.2432L33.79 91.0645L32 95H28.0137L19.2539 75.1572ZM54.3615 90.2773C54.3615 89.5579 54.5181 88.902 54.8312 88.3096C55.1444 87.7171 55.6141 87.2093 56.2404 86.7861C56.8667 86.3545 57.6454 86.0244 58.5764 85.7959C59.5158 85.5589 60.6076 85.4404 61.8518 85.4404C62.7743 85.4404 63.7434 85.5081 64.759 85.6436C65.7831 85.779 66.8368 85.9863 67.9201 86.2656C67.8778 85.7917 67.7339 85.3558 67.4885 84.958C67.243 84.5518 66.9003 84.2048 66.4602 83.917C66.0285 83.6208 65.5038 83.3923 64.8859 83.2314C64.2766 83.0706 63.5826 82.9902 62.8039 82.9902C62.3807 82.9902 61.9152 83.0156 61.4074 83.0664C60.8996 83.1172 60.3749 83.1934 59.8332 83.2949C59.2915 83.3965 58.7541 83.5234 58.2209 83.6758C57.6962 83.8281 57.2053 84.0101 56.7482 84.2217L55.6057 81.1367C56.1727 80.9336 56.7779 80.7474 57.4211 80.5781C58.0728 80.4089 58.7372 80.265 59.4143 80.1465C60.0913 80.0195 60.7684 79.9222 61.4455 79.8545C62.1226 79.7868 62.7785 79.7529 63.4133 79.7529C66.2147 79.7529 68.2967 80.4681 69.6594 81.8984C71.022 83.3288 71.7033 85.5208 71.7033 88.4746V95H67.9455V93.5908C67.5562 93.8193 67.1288 94.0352 66.6633 94.2383C66.2062 94.4414 65.7069 94.6191 65.1652 94.7715C64.6236 94.9238 64.0396 95.0423 63.4133 95.127C62.7954 95.2201 62.1395 95.2666 61.4455 95.2666C60.2775 95.2666 59.2492 95.1396 58.3605 94.8857C57.4803 94.6318 56.744 94.2806 56.1516 93.832C55.5591 93.3835 55.1105 92.8587 54.8059 92.2578C54.5096 91.6484 54.3615 90.9883 54.3615 90.2773ZM58.3225 90.1504C58.3225 90.3958 58.3859 90.6328 58.5129 90.8613C58.6398 91.0814 58.843 91.2803 59.1223 91.458C59.4016 91.6273 59.757 91.7669 60.1887 91.877C60.6288 91.9785 61.1577 92.0293 61.7756 92.0293C62.4357 92.0293 63.0747 91.9701 63.6926 91.8516C64.3104 91.7331 64.8859 91.5765 65.4191 91.3818C65.9523 91.1872 66.4348 90.9629 66.8664 90.709C67.298 90.4551 67.6577 90.1927 67.9455 89.9219V89.2617C67.37 89.1009 66.7987 88.9655 66.2316 88.8555C65.673 88.7454 65.1356 88.6608 64.6193 88.6016C64.1115 88.5339 63.6291 88.4873 63.1721 88.4619C62.7235 88.4365 62.3299 88.4238 61.9914 88.4238C61.2889 88.4238 60.7049 88.4704 60.2395 88.5635C59.774 88.6566 59.3973 88.7835 59.1096 88.9443C58.8218 89.0967 58.6187 89.2786 58.5002 89.4902C58.3817 89.7018 58.3225 89.9219 58.3225 90.1504ZM77.9799 80.0195H81.7377V82.1777C82.5671 81.5599 83.4431 81.0267 84.3656 80.5781C85.2881 80.1296 86.2064 79.7868 87.1205 79.5498L88.225 82.9902C86.7777 83.1341 85.504 83.46 84.4037 83.9678C83.3119 84.4671 82.4232 85.1738 81.7377 86.0879V95H77.9799V80.0195ZM92.9273 90.4043C93.943 91.0137 95.0602 91.4622 96.2789 91.75C97.4977 92.0378 98.746 92.1816 100.024 92.1816C100.887 92.1816 101.607 92.1224 102.182 92.0039C102.758 91.8854 103.219 91.7331 103.566 91.5469C103.913 91.3607 104.158 91.1491 104.302 90.9121C104.446 90.6751 104.518 90.4339 104.518 90.1885C104.518 89.833 104.362 89.5283 104.048 89.2744C103.744 89.0205 103.236 88.8936 102.525 88.8936C102.195 88.8936 101.839 88.9147 101.459 88.957C101.078 88.9993 100.676 89.0459 100.253 89.0967C99.8378 89.139 99.402 89.1813 98.9449 89.2236C98.4964 89.266 98.0393 89.2871 97.5738 89.2871C96.5582 89.2871 95.6907 89.1771 94.9713 88.957C94.2604 88.737 93.6806 88.4365 93.232 88.0557C92.7835 87.6748 92.4576 87.2262 92.2545 86.71C92.0514 86.1852 91.9498 85.6224 91.9498 85.0215C91.9498 84.2598 92.1275 83.5573 92.483 82.9141C92.8385 82.2708 93.3463 81.7165 94.0064 81.251C94.6666 80.777 95.4622 80.4089 96.3932 80.1465C97.3326 79.8841 98.3779 79.7529 99.5289 79.7529C100.13 79.7529 100.756 79.791 101.408 79.8672C102.068 79.9349 102.715 80.028 103.35 80.1465C103.985 80.265 104.594 80.4046 105.178 80.5654C105.762 80.7178 106.279 80.8828 106.727 81.0605L105.546 83.9805C104.59 83.625 103.634 83.3457 102.677 83.1426C101.729 82.931 100.752 82.8252 99.7447 82.8252C99.0423 82.8252 98.4456 82.8802 97.9547 82.9902C97.4723 83.0918 97.0787 83.2314 96.774 83.4092C96.4693 83.5785 96.2451 83.7773 96.1012 84.0059C95.9658 84.2259 95.898 84.4587 95.898 84.7041C95.898 84.8818 95.9319 85.0426 95.9996 85.1865C96.0758 85.3304 96.1943 85.4574 96.3551 85.5674C96.5244 85.6689 96.7402 85.7493 97.0025 85.8086C97.2734 85.8594 97.6035 85.8848 97.9928 85.8848C98.3482 85.8848 98.7249 85.8636 99.1227 85.8213C99.5204 85.779 99.9352 85.7367 100.367 85.6943C100.798 85.6436 101.243 85.597 101.7 85.5547C102.165 85.5124 102.639 85.4912 103.122 85.4912C104.019 85.4912 104.802 85.597 105.47 85.8086C106.147 86.0202 106.706 86.3164 107.146 86.6973C107.586 87.0781 107.916 87.5267 108.136 88.043C108.356 88.5592 108.466 89.1221 108.466 89.7314C108.466 90.5186 108.284 91.2507 107.921 91.9277C107.557 92.6048 107.015 93.193 106.296 93.6924C105.576 94.1833 104.679 94.5684 103.604 94.8477C102.538 95.127 101.302 95.2666 99.8971 95.2666C99.0338 95.2666 98.2001 95.2116 97.3961 95.1016C96.5921 95 95.8261 94.8604 95.0982 94.6826C94.3704 94.4964 93.6848 94.2806 93.0416 94.0352C92.4068 93.7897 91.8271 93.5273 91.3023 93.248L92.9273 90.4043Z" fill="white"/>
<defs>
<linearGradient id="paint0_linear_201_17" x1="17" y1="112.5" x2="121" y2="-10.5" gradientUnits="userSpaceOnUse">
<stop offset="0" stop-color="#FFC100"/>
<stop offset="1" stop-color="FF7750"/>
</linearGradient>
</defs>
</svg>
